<svg xmlns="http://www.w3.org/2000/svg" xmlns:xlink="http://www.w3.org/1999/xlink" width="1000" zoomAndPan="magnify" viewBox="0 0 750 187.499995" height="250" preserveAspectRatio="xMidYMid meet" version="1.0"><defs><g/><clipPath id="abfdfd9b42"><path d="M 215 0 L 419 0 L 419 187 L 215 187 Z M 215 0 " clip-rule="nonzero"/></clipPath><clipPath id="aab1fe56ed"><path d="M 273 0 L 749 0 L 749 187 L 273 187 Z M 273 0 " clip-rule="nonzero"/></clipPath></defs><g fill="#ffffff" fill-opacity="1"><g transform="translate(26.851401, 127.902943)"><g><path d="M 54.5 -85.4375 C 62.207031 -85.4375 68.382812 -83.625 73.03125 -80 C 77.675781 -76.375 80 -71.160156 80 -64.359375 C 80 -57.109375 77.84375 -50.707031 73.53125 -45.15625 C 69.226562 -39.601562 63.71875 -36.222656 57 -35.015625 L 78.296875 0 L 50.65625 0 L 34.90625 -32.859375 L 34.671875 -32.859375 L 29.46875 0 L 7.25 0 L 20.734375 -85.4375 Z M 36.9375 -47.140625 L 40 -47.140625 C 45.207031 -47.140625 49.242188 -48.234375 52.109375 -50.421875 C 54.984375 -52.609375 56.421875 -55.820312 56.421875 -60.0625 C 56.421875 -65.644531 51.816406 -68.4375 42.609375 -68.4375 L 40.34375 -68.4375 Z M 36.9375 -47.140625 "/></g></g></g><g fill="#db4a2b" fill-opacity="1"><g transform="translate(91.907005, 127.902943)"><g><path d="M 69.34375 -85.4375 L 66.40625 -66.625 L 40 -66.625 L 37.734375 -52.34375 L 62.78125 -52.34375 L 59.828125 -33.546875 L 34.78125 -33.546875 L 32.40625 -18.8125 L 58.8125 -18.8125 L 55.859375 0 L 7.25 0 L 20.734375 -85.4375 Z M 69.34375 -85.4375 "/></g></g></g><g fill="#db4a2b" fill-opacity="1"><g transform="translate(142.206617, 127.902943)"><g><path d="M 70.140625 -85.4375 L 88.84375 0 L 65.15625 0 L 61.984375 -14.84375 L 31.390625 -14.84375 L 23.109375 0 L -0.453125 0 L 45.890625 -85.4375 Z M 40.21875 -31.84375 L 58.703125 -31.84375 L 53.9375 -59.03125 L 53.703125 -59.03125 Z M 40.21875 -31.84375 "/></g></g></g><g fill="#db4a2b" fill-opacity="1"><g transform="translate(218.677607, 127.902943)"><g><path d="M 42.953125 -85.4375 L 32.40625 -18.8125 L 59.03125 -18.8125 L 56.09375 0 L 7.25 0 L 20.734375 -85.4375 Z M 42.953125 -85.4375 "/></g></g></g><g clip-path="url(#abfdfd9b42)"><path stroke-linecap="butt" transform="matrix(1.76422, 0, 0, 1.76422, 273.43244, 14.992877)" fill="none" stroke-linejoin="miter" d="M 30.892497 15.576165 C 35.261018 15.576165 38.763806 16.605746 41.398646 18.664907 C 44.033486 20.715211 45.350907 23.662247 45.350907 27.510442 C 45.350907 31.628764 44.126481 35.262187 41.679843 38.408497 C 39.244277 41.554806 36.117895 43.467833 32.302911 44.147577 L 44.37668 63.99966 L 28.711557 63.99966 L 19.788527 45.369789 L 19.649035 45.369789 L 16.699785 63.99966 L 4.107905 63.99966 L 11.760013 15.576165 Z M 20.933243 37.279279 L 22.67578 37.279279 C 25.633887 37.279279 27.92332 36.657103 29.544078 35.412749 C 31.173694 34.168396 31.988502 32.350578 31.988502 29.95708 C 31.988502 26.788629 29.375803 25.205511 24.148191 25.205511 L 22.863983 25.205511 Z M 20.933243 37.279279 " stroke="#000000" stroke-width="6.504209" stroke-opacity="1" stroke-miterlimit="4"/></g><g clip-path="url(#aab1fe56ed)"><path stroke-linecap="butt" transform="matrix(1.76422, 0, 0, 1.76422, 273.43244, 14.992877)" fill="none" stroke-linejoin="miter" d="M 76.625798 15.576165 L 87.227155 63.99966 L 73.804968 63.99966 L 72.015934 55.579242 L 54.672485 55.579242 L 49.985126 63.99966 L 36.624935 63.99966 L 62.889201 15.576165 Z M 59.676467 45.949897 L 70.149404 45.949897 L 67.452568 30.537188 L 67.328575 30.537188 Z M 121.65057 15.576165 L 119.972243 26.239519 L 109.574587 26.239519 L 103.600806 63.99966 L 91.008926 63.99966 L 96.982707 26.239519 L 86.587265 26.239519 L 88.250093 15.576165 Z M 131.977373 15.576165 L 124.340764 63.99966 L 111.748884 63.99966 L 119.400992 15.576165 Z M 145.975239 15.576165 L 164.352697 45.181586 L 164.478904 45.181586 L 169.166263 15.576165 L 181.758143 15.576165 L 174.106035 63.99966 L 161.529654 63.99966 L 143.152196 34.332243 L 143.025989 34.332243 L 138.33863 63.99966 L 125.74675 63.99966 L 133.398858 15.576165 Z M 214.246389 32.52771 C 213.002035 27.384236 209.855726 24.813606 204.805246 24.813606 C 202.150479 24.813606 199.657344 25.681553 197.325842 27.415234 C 194.994341 29.151129 193.138882 31.44499 191.759465 34.299031 C 190.388905 37.144216 189.704733 40.044755 189.704733 43.002861 C 189.704733 46.682781 190.665674 49.64753 192.589772 51.894894 C 194.524941 54.142258 197.115498 55.264832 200.368087 55.264832 C 203.326193 55.264832 205.808257 54.518663 207.816493 53.024111 C 209.833585 51.518488 211.162076 49.459327 211.799751 46.844414 L 201.528302 46.844414 L 203.126919 36.96487 L 228.122477 36.96487 C 227.00433 43.729103 225.128944 49.07185 222.494103 52.990899 C 219.859263 56.90109 216.520322 59.980975 212.472853 62.228339 C 208.427598 64.475703 203.817735 65.600492 198.643263 65.600492 C 191.963167 65.600492 186.600492 63.718463 182.553023 59.954405 C 178.507768 56.190348 176.486248 51.157581 176.486248 44.853892 C 176.486248 39.334012 177.785955 34.201609 180.389797 29.454468 C 183.002496 24.69847 186.662488 20.929984 191.36756 18.14901 C 196.081489 15.356964 201.375526 13.962049 207.251884 13.962049 C 217.485692 13.962049 224.057294 18.476704 226.962261 27.510442 Z M 247.051258 14.289743 C 252.234587 14.289743 257.096864 15.618234 261.633661 18.273002 L 255.079772 28.02634 C 252.810267 25.885255 250.201996 24.813606 247.25496 24.813606 C 245.707268 24.813606 244.301282 25.252008 243.037002 26.131026 C 241.781578 27.00783 241.154973 28.09055 241.154973 29.376972 C 241.154973 30.317987 241.604446 31.143865 242.503391 31.854608 C 243.402337 32.565351 245.047451 33.260594 247.443163 33.940339 C 250.693538 34.921208 253.044967 35.873293 254.499664 36.792166 C 255.963219 37.713253 257.096864 38.846899 257.902815 40.195317 C 258.717623 41.543735 259.125027 43.228704 259.125027 45.245797 C 259.125027 48.150763 258.376644 51.235077 256.882091 54.496522 C 255.387539 57.749111 252.936473 60.341882 249.528894 62.274836 C 246.119101 64.198934 242.084916 65.201945 237.421913 65.286082 C 231.432633 65.286082 226.036746 63.446123 221.238679 59.766203 L 228.233184 49.605461 C 231.578767 52.951044 235.028415 54.622728 238.582129 54.622728 C 240.548295 54.622728 242.204481 54.111259 243.552899 53.086107 C 244.901317 52.049884 245.576633 50.743535 245.576633 49.164845 C 245.576633 47.105684 243.521901 45.522566 239.41465 44.413276 C 234.448308 43.04493 231.23336 41.581376 229.769805 40.022613 C 228.317322 38.454994 227.59108 36.364835 227.59108 33.752136 C 227.59108 28.272111 229.462038 23.662247 233.203954 19.920331 C 236.956941 16.167344 241.573447 14.289743 247.051258 14.289743 Z M 247.051258 14.289743 " stroke="#000000" stroke-width="6.504209" stroke-opacity="1" stroke-miterlimit="4"/></g><g fill="#ffffff" fill-opacity="1"><g transform="translate(273.43244, 127.902943)"><g><path d="M 54.5 -85.4375 C 62.207031 -85.4375 68.382812 -83.625 73.03125 -80 C 77.675781 -76.375 80 -71.160156 80 -64.359375 C 80 -57.109375 77.84375 -50.707031 73.53125 -45.15625 C 69.226562 -39.601562 63.71875 -36.222656 57 -35.015625 L 78.296875 0 L 50.65625 0 L 34.90625 -32.859375 L 34.671875 -32.859375 L 29.46875 0 L 7.25 0 L 20.734375 -85.4375 Z M 36.9375 -47.140625 L 40 -47.140625 C 45.207031 -47.140625 49.242188 -48.234375 52.109375 -50.421875 C 54.984375 -52.609375 56.421875 -55.820312 56.421875 -60.0625 C 56.421875 -65.644531 51.816406 -68.4375 42.609375 -68.4375 L 40.34375 -68.4375 Z M 36.9375 -47.140625 "/></g></g></g><g fill="#db4a2b" fill-opacity="1"><g transform="translate(338.488044, 127.902943)"><g><path d="M 70.140625 -85.4375 L 88.84375 0 L 65.15625 0 L 61.984375 -14.84375 L 31.390625 -14.84375 L 23.109375 0 L -0.453125 0 L 45.890625 -85.4375 Z M 40.21875 -31.84375 L 58.703125 -31.84375 L 53.9375 -59.03125 L 53.703125 -59.03125 Z M 40.21875 -31.84375 "/></g></g></g><g fill="#db4a2b" fill-opacity="1"><g transform="translate(414.959034, 127.902943)"><g><path d="M 73.09375 -85.4375 L 70.140625 -66.625 L 51.78125 -66.625 L 41.25 0 L 19.03125 0 L 29.578125 -66.625 L 11.21875 -66.625 L 14.15625 -85.4375 Z M 73.09375 -85.4375 "/></g></g></g><g fill="#db4a2b" fill-opacity="1"><g transform="translate(463.332612, 127.902943)"><g><path d="M 42.953125 -85.4375 L 29.46875 0 L 7.25 0 L 20.734375 -85.4375 Z M 42.953125 -85.4375 "/></g></g></g><g fill="#db4a2b" fill-opacity="1"><g transform="translate(488.027355, 127.902943)"><g><path d="M 42.953125 -85.4375 L 75.359375 -33.203125 L 75.578125 -33.203125 L 83.84375 -85.4375 L 106.0625 -85.4375 L 92.578125 0 L 70.359375 0 L 37.953125 -52.34375 L 37.734375 -52.34375 L 29.46875 0 L 7.25 0 L 20.734375 -85.4375 Z M 42.953125 -85.4375 "/></g></g></g><g fill="#db4a2b" fill-opacity="1"><g transform="translate(575.827937, 127.902943)"><g><path d="M 75.578125 -55.515625 C 73.390625 -64.585938 67.835938 -69.125 58.921875 -69.125 C 54.234375 -69.125 49.832031 -67.59375 45.71875 -64.53125 C 41.601562 -61.46875 38.335938 -57.425781 35.921875 -52.40625 C 33.503906 -47.382812 32.296875 -42.265625 32.296875 -37.046875 C 32.296875 -30.554688 33.992188 -25.328125 37.390625 -21.359375 C 40.785156 -17.390625 45.359375 -15.40625 51.109375 -15.40625 C 56.316406 -15.40625 60.695312 -16.726562 64.25 -19.375 C 67.800781 -22.019531 70.144531 -25.644531 71.28125 -30.25 L 53.140625 -30.25 L 55.96875 -47.703125 L 100.0625 -47.703125 C 98.09375 -35.765625 94.785156 -26.335938 90.140625 -19.421875 C 85.492188 -12.515625 79.597656 -7.078125 72.453125 -3.109375 C 65.316406 0.847656 57.179688 2.828125 48.046875 2.828125 C 36.265625 2.828125 26.800781 -0.492188 19.65625 -7.140625 C 12.519531 -13.785156 8.953125 -22.660156 8.953125 -33.765625 C 8.953125 -43.515625 11.253906 -52.582031 15.859375 -60.96875 C 20.472656 -69.351562 26.929688 -76 35.234375 -80.90625 C 43.546875 -85.8125 52.878906 -88.265625 63.234375 -88.265625 C 81.285156 -88.265625 92.878906 -80.296875 98.015625 -64.359375 Z M 75.578125 -55.515625 "/></g></g></g><g fill="#db4a2b" fill-opacity="1"><g transform="translate(659.209988, 127.902943)"><g><path d="M 50.078125 -87.703125 C 59.222656 -87.703125 67.800781 -85.359375 75.8125 -80.671875 L 64.25 -63.453125 C 60.25 -67.234375 55.640625 -69.125 50.421875 -69.125 C 47.703125 -69.125 45.226562 -68.347656 43 -66.796875 C 40.769531 -65.242188 39.65625 -63.335938 39.65625 -61.078125 C 39.65625 -59.410156 40.445312 -57.953125 42.03125 -56.703125 C 43.625 -55.460938 46.535156 -54.238281 50.765625 -53.03125 C 56.503906 -51.289062 60.65625 -49.609375 63.21875 -47.984375 C 65.789062 -46.359375 67.796875 -44.351562 69.234375 -41.96875 C 70.671875 -39.59375 71.390625 -36.632812 71.390625 -33.09375 C 71.390625 -27.945312 70.066406 -22.503906 67.421875 -16.765625 C 64.773438 -11.023438 60.445312 -6.453125 54.4375 -3.046875 C 48.4375 0.347656 41.320312 2.117188 33.09375 2.265625 C 22.507812 2.265625 12.988281 -0.984375 4.53125 -7.484375 L 16.890625 -25.375 C 22.773438 -19.488281 28.851562 -16.546875 35.125 -16.546875 C 38.601562 -16.546875 41.53125 -17.453125 43.90625 -19.265625 C 46.289062 -21.078125 47.484375 -23.378906 47.484375 -26.171875 C 47.484375 -29.796875 43.851562 -32.59375 36.59375 -34.5625 C 27.832031 -36.976562 22.164062 -39.5625 19.59375 -42.3125 C 17.03125 -45.070312 15.75 -48.757812 15.75 -53.375 C 15.75 -63.039062 19.050781 -71.175781 25.65625 -77.78125 C 32.269531 -84.394531 40.410156 -87.703125 50.078125 -87.703125 Z M 50.078125 -87.703125 "/></g></g></g></svg>