<svg xmlns="http://www.w3.org/2000/svg" xmlns:xlink="http://www.w3.org/1999/xlink" width="1000" zoomAndPan="magnify" viewBox="0 0 750 187.499995" height="250" preserveAspectRatio="xMidYMid meet" version="1.0"><defs><g/></defs><g fill="#db4a2b" fill-opacity="1"><g transform="translate(161.886947, 137.685237)"><g><path d="M 121.515625 -79.734375 C 121.515625 -72.710938 119.617188 -66.359375 115.828125 -60.671875 C 112.046875 -54.992188 106.535156 -50.816406 99.296875 -48.140625 L 124.859375 0 L 83.40625 0 L 63.015625 -41.953125 L 49.3125 -41.953125 L 49.3125 0 L 12.375 0 L 12.375 -115 L 82.75 -115 C 90.988281 -115 98.03125 -113.410156 103.875 -110.234375 C 109.726562 -107.054688 114.128906 -102.765625 117.078125 -97.359375 C 120.035156 -91.960938 121.515625 -86.085938 121.515625 -79.734375 Z M 83.90625 -78.234375 C 83.90625 -81.242188 82.898438 -83.75 80.890625 -85.75 C 78.890625 -87.757812 76.441406 -88.765625 73.546875 -88.765625 L 49.3125 -88.765625 L 49.3125 -67.53125 L 73.546875 -67.53125 C 76.441406 -67.53125 78.890625 -68.5625 80.890625 -70.625 C 82.898438 -72.6875 83.90625 -75.222656 83.90625 -78.234375 Z M 83.90625 -78.234375 "/></g></g></g><g fill="#db4a2b" fill-opacity="1"><g transform="translate(282.38583, 137.685237)"><g><path d="M 55.65625 -90.265625 C 71.820312 -90.265625 84.164062 -86.472656 92.6875 -78.890625 C 101.207031 -71.316406 105.46875 -59.726562 105.46875 -44.125 L 105.46875 -38.453125 L 39.28125 -38.453125 C 39.28125 -32.097656 40.703125 -27.300781 43.546875 -24.0625 C 46.390625 -20.832031 50.875 -19.21875 57 -19.21875 C 62.570312 -19.21875 66.664062 -20.390625 69.28125 -22.734375 C 71.90625 -25.078125 73.21875 -28.195312 73.21875 -32.09375 L 105.46875 -32.09375 C 105.46875 -21.394531 101.398438 -13.035156 93.265625 -7.015625 C 85.140625 -1.003906 73.273438 2 57.671875 2 C 41.285156 2 28.578125 -1.8125 19.546875 -9.4375 C 10.523438 -17.070312 6.015625 -28.632812 6.015625 -44.125 C 6.015625 -59.28125 10.414062 -70.757812 19.21875 -78.5625 C 28.019531 -86.363281 40.164062 -90.265625 55.65625 -90.265625 Z M 57 -69.03125 C 46.519531 -69.03125 40.671875 -64.070312 39.453125 -54.15625 L 71.875 -54.15625 C 71.875 -58.726562 70.5625 -62.347656 67.9375 -65.015625 C 65.320312 -67.691406 61.675781 -69.03125 57 -69.03125 Z M 57 -69.03125 "/></g></g></g><g fill="#db4a2b" fill-opacity="1"><g transform="translate(384.33334, 137.685237)"><g><path d="M 53.65625 -90.265625 C 67.144531 -90.265625 78.125 -88.003906 86.59375 -83.484375 C 95.0625 -78.972656 99.296875 -71.648438 99.296875 -61.515625 L 99.296875 -27.078125 C 99.296875 -25.179688 99.738281 -23.617188 100.625 -22.390625 C 101.519531 -21.171875 102.859375 -20.5625 104.640625 -20.5625 L 110.65625 -20.5625 L 110.65625 -1.34375 C 110.320312 -1.113281 109.457031 -0.75 108.0625 -0.25 C 106.675781 0.25 104.695312 0.75 102.125 1.25 C 99.5625 1.75 96.609375 2 93.265625 2 C 86.804688 2 81.488281 1.023438 77.3125 -0.921875 C 73.132812 -2.867188 70.265625 -5.570312 68.703125 -9.03125 C 64.460938 -5.6875 59.722656 -3.007812 54.484375 -1 C 49.253906 1 43.128906 2 36.109375 2 C 15.378906 2 5.015625 -6.242188 5.015625 -22.734375 C 5.015625 -31.316406 7.328125 -37.863281 11.953125 -42.375 C 16.578125 -46.882812 23.234375 -49.972656 31.921875 -51.640625 C 40.617188 -53.316406 51.988281 -54.15625 66.03125 -54.15625 L 66.03125 -58.5 C 66.03125 -61.957031 64.832031 -64.578125 62.4375 -66.359375 C 60.039062 -68.140625 56.945312 -69.03125 53.15625 -69.03125 C 49.695312 -69.03125 46.710938 -68.414062 44.203125 -67.1875 C 41.703125 -65.96875 40.453125 -64.019531 40.453125 -61.34375 L 40.453125 -60.671875 L 7.6875 -60.671875 C 7.570312 -61.234375 7.515625 -62.015625 7.515625 -63.015625 C 7.515625 -71.367188 11.5 -78 19.46875 -82.90625 C 27.4375 -87.8125 38.832031 -90.265625 53.65625 -90.265625 Z M 66.03125 -38.453125 C 56.550781 -38.453125 49.554688 -37.421875 45.046875 -35.359375 C 40.535156 -33.296875 38.28125 -30.535156 38.28125 -27.078125 C 38.28125 -21.503906 42.066406 -18.71875 49.640625 -18.71875 C 53.992188 -18.71875 57.8125 -19.882812 61.09375 -22.21875 C 64.382812 -24.5625 66.03125 -27.460938 66.03125 -30.921875 Z M 66.03125 -38.453125 "/></g></g></g><g fill="#db4a2b" fill-opacity="1"><g transform="translate(486.280844, 137.685237)"><g><path d="M 11.203125 0 L 11.203125 -121.1875 L 44.46875 -121.1875 L 44.46875 0 Z M 11.203125 0 "/></g></g></g><g fill="#db4a2b" fill-opacity="1"><g transform="translate(532.407062, 137.685237)"><g><path d="M 10.203125 0 L 10.203125 -33.265625 L 45.640625 -33.265625 L 45.640625 0 Z M 10.203125 0 "/></g></g></g><g fill="#db4a2b" fill-opacity="1"><g transform="translate(484.10392, 168.280952)"><g><path d="M 15.203125 -11.890625 C 15.203125 -9.515625 13.890625 -7.984375 11.265625 -7.296875 C 11.960938 -7.003906 12.441406 -6.507812 12.703125 -5.8125 C 12.960938 -5.125 13.09375 -4.175781 13.09375 -2.96875 C 13.09375 -2.320312 13.132812 -1.757812 13.21875 -1.28125 C 13.3125 -0.800781 13.441406 -0.375 13.609375 0 L 9.234375 0 C 9.179688 -0.414062 9.140625 -0.867188 9.109375 -1.359375 C 9.085938 -1.847656 9.078125 -2.53125 9.078125 -3.40625 C 9.078125 -4.144531 8.957031 -4.722656 8.71875 -5.140625 C 8.488281 -5.554688 8.132812 -5.78125 7.65625 -5.8125 C 7.4375 -5.820312 7.226562 -5.828125 7.03125 -5.828125 C 6.84375 -5.828125 6.632812 -5.828125 6.40625 -5.828125 L 5.5 -5.828125 L 4.46875 0 L 0.46875 0 L 3.1875 -15.359375 L 9.28125 -15.359375 C 9.757812 -15.359375 10.175781 -15.347656 10.53125 -15.328125 C 10.882812 -15.316406 11.265625 -15.289062 11.671875 -15.25 C 12.316406 -15.175781 12.90625 -15.015625 13.4375 -14.765625 C 13.976562 -14.515625 14.40625 -14.15625 14.71875 -13.6875 C 15.039062 -13.21875 15.203125 -12.617188 15.203125 -11.890625 Z M 6.015625 -8.734375 L 7.484375 -8.734375 C 7.691406 -8.734375 7.882812 -8.734375 8.0625 -8.734375 C 8.238281 -8.734375 8.398438 -8.738281 8.546875 -8.75 C 8.953125 -8.78125 9.328125 -8.863281 9.671875 -9 C 10.023438 -9.132812 10.304688 -9.34375 10.515625 -9.625 C 10.734375 -9.914062 10.84375 -10.320312 10.84375 -10.84375 C 10.84375 -11.34375 10.691406 -11.6875 10.390625 -11.875 C 10.085938 -12.070312 9.710938 -12.1875 9.265625 -12.21875 C 9.117188 -12.238281 8.953125 -12.25 8.765625 -12.25 C 8.585938 -12.25 8.394531 -12.25 8.1875 -12.25 L 6.640625 -12.25 Z M 6.015625 -8.734375 "/></g></g></g><g fill="#db4a2b" fill-opacity="1"><g transform="translate(498.256939, 168.280952)"><g><path d="M 10.09375 -3.984375 L 5.25 -3.984375 L 3.296875 0 L -0.953125 0 L 7.140625 -15.359375 L 12.328125 -15.359375 L 15.03125 0 L 10.671875 0 Z M 9.640625 -7.109375 L 9 -11.640625 L 6.765625 -7.109375 Z M 9.640625 -7.109375 "/></g></g></g><g fill="#db4a2b" fill-opacity="1"><g transform="translate(513.300128, 168.280952)"><g><path d="M 15.390625 -12.25 L 10.421875 -12.25 L 8.265625 0 L 4.25 0 L 6.40625 -12.25 L 1.40625 -12.25 L 1.984375 -15.359375 L 15.96875 -15.359375 Z M 15.390625 -12.25 "/></g></g></g><g fill="#db4a2b" fill-opacity="1"><g transform="translate(526.674265, 168.280952)"><g><path d="M 4.46875 0 L 0.46875 0 L 3.1875 -15.359375 L 7.1875 -15.359375 Z M 4.46875 0 "/></g></g></g><g fill="#db4a2b" fill-opacity="1"><g transform="translate(532.793524, 168.280952)"><g><path d="M 17.875 -15.359375 L 15.15625 0 L 9.9375 0 L 6.25 -10.171875 L 4.46875 0 L 0.46875 0 L 3.1875 -15.359375 L 8.171875 -15.359375 L 12.03125 -4.75 L 13.875 -15.359375 Z M 17.875 -15.359375 "/></g></g></g><g fill="#db4a2b" fill-opacity="1"><g transform="translate(549.594802, 168.280952)"><g><path d="M 10.828125 -15.671875 C 12.296875 -15.671875 13.476562 -15.429688 14.375 -14.953125 C 15.28125 -14.484375 15.929688 -13.84375 16.328125 -13.03125 C 16.734375 -12.226562 16.898438 -11.320312 16.828125 -10.3125 L 16.8125 -10.09375 L 12.796875 -10.09375 L 12.796875 -10.3125 C 12.753906 -11.925781 11.910156 -12.734375 10.265625 -12.734375 C 9.472656 -12.734375 8.722656 -12.492188 8.015625 -12.015625 C 7.316406 -11.546875 6.742188 -10.835938 6.296875 -9.890625 C 5.859375 -8.953125 5.640625 -7.769531 5.640625 -6.34375 C 5.640625 -5.4375 5.765625 -4.710938 6.015625 -4.171875 C 6.265625 -3.628906 6.601562 -3.234375 7.03125 -2.984375 C 7.46875 -2.742188 7.945312 -2.625 8.46875 -2.625 C 9.25 -2.625 9.929688 -2.820312 10.515625 -3.21875 C 11.109375 -3.613281 11.613281 -4.234375 12.03125 -5.078125 L 9.046875 -5.078125 L 9.59375 -8.1875 L 16.359375 -8.1875 L 14.921875 0 L 11.796875 0 L 11.84375 -2.375 L 10.859375 -0.671875 C 10.367188 -0.296875 9.832031 -0.0390625 9.25 0.09375 C 8.675781 0.238281 7.984375 0.3125 7.171875 0.3125 C 5.421875 0.3125 4.015625 -0.210938 2.953125 -1.265625 C 1.898438 -2.316406 1.375 -3.851562 1.375 -5.875 C 1.375 -7.476562 1.640625 -8.890625 2.171875 -10.109375 C 2.703125 -11.328125 3.414062 -12.347656 4.3125 -13.171875 C 5.207031 -14.003906 6.210938 -14.628906 7.328125 -15.046875 C 8.453125 -15.460938 9.617188 -15.671875 10.828125 -15.671875 Z M 10.828125 -15.671875 "/></g></g></g><g fill="#db4a2b" fill-opacity="1"><g transform="translate(566.218032, 168.280952)"><g><path d="M 8.46875 -15.671875 C 9.8125 -15.671875 10.890625 -15.445312 11.703125 -15 C 12.515625 -14.5625 13.09375 -13.957031 13.4375 -13.1875 C 13.78125 -12.425781 13.925781 -11.570312 13.875 -10.625 L 9.859375 -10.625 C 9.890625 -11.257812 9.765625 -11.769531 9.484375 -12.15625 C 9.203125 -12.539062 8.734375 -12.734375 8.078125 -12.734375 C 7.554688 -12.734375 7.117188 -12.59375 6.765625 -12.3125 C 6.421875 -12.039062 6.25 -11.640625 6.25 -11.109375 C 6.25 -10.691406 6.460938 -10.332031 6.890625 -10.03125 C 7.316406 -9.726562 8.070312 -9.441406 9.15625 -9.171875 C 10.5625 -8.828125 11.578125 -8.300781 12.203125 -7.59375 C 12.835938 -6.882812 13.15625 -6.046875 13.15625 -5.078125 C 13.15625 -4.179688 12.96875 -3.394531 12.59375 -2.71875 C 12.21875 -2.050781 11.695312 -1.488281 11.03125 -1.03125 C 10.375 -0.582031 9.628906 -0.242188 8.796875 -0.015625 C 7.960938 0.203125 7.101562 0.3125 6.21875 0.3125 C 4.976562 0.3125 3.894531 0.132812 2.96875 -0.21875 C 2.039062 -0.570312 1.335938 -1.117188 0.859375 -1.859375 C 0.390625 -2.609375 0.210938 -3.554688 0.328125 -4.703125 L 4.34375 -4.703125 C 4.34375 -3.972656 4.578125 -3.441406 5.046875 -3.109375 C 5.515625 -2.785156 6.046875 -2.625 6.640625 -2.625 C 7.242188 -2.625 7.765625 -2.773438 8.203125 -3.078125 C 8.640625 -3.390625 8.859375 -3.789062 8.859375 -4.28125 C 8.859375 -4.613281 8.6875 -4.941406 8.34375 -5.265625 C 8.007812 -5.597656 7.441406 -5.867188 6.640625 -6.078125 C 5.148438 -6.460938 3.992188 -6.960938 3.171875 -7.578125 C 2.359375 -8.191406 1.953125 -9.082031 1.953125 -10.25 C 1.953125 -11.125 2.128906 -11.894531 2.484375 -12.5625 C 2.847656 -13.238281 3.335938 -13.804688 3.953125 -14.265625 C 4.566406 -14.734375 5.257812 -15.082031 6.03125 -15.3125 C 6.800781 -15.550781 7.613281 -15.671875 8.46875 -15.671875 Z M 8.46875 -15.671875 "/></g></g></g></svg>