<svg xmlns="http://www.w3.org/2000/svg" xmlns:xlink="http://www.w3.org/1999/xlink" width="1000" zoomAndPan="magnify" viewBox="0 0 750 187.499995" height="250" preserveAspectRatio="xMidYMid meet" version="1.0"><defs><g/></defs><g fill="#db4a2b" fill-opacity="1"><g transform="translate(81.668453, 121.760123)"><g><path d="M 6.859375 0 L 6.859375 -58.640625 L 27.09375 -58.640625 L 27.09375 -50.171875 L 27.3125 -50.171875 C 27.46875 -50.484375 27.71875 -50.863281 28.0625 -51.3125 C 28.40625 -51.769531 29.144531 -52.570312 30.28125 -53.71875 C 31.425781 -54.863281 32.644531 -55.890625 33.9375 -56.796875 C 35.238281 -57.710938 36.914062 -58.53125 38.96875 -59.25 C 41.03125 -59.976562 43.128906 -60.34375 45.265625 -60.34375 C 47.472656 -60.34375 49.644531 -60.035156 51.78125 -59.421875 C 53.914062 -58.816406 55.476562 -58.210938 56.46875 -57.609375 L 58.0625 -56.6875 L 49.609375 -39.546875 C 47.085938 -41.679688 43.582031 -42.75 39.09375 -42.75 C 36.65625 -42.75 34.554688 -42.210938 32.796875 -41.140625 C 31.046875 -40.078125 29.804688 -38.78125 29.078125 -37.25 C 28.359375 -35.726562 27.847656 -34.4375 27.546875 -33.375 C 27.242188 -32.3125 27.09375 -31.472656 27.09375 -30.859375 L 27.09375 0 Z M 6.859375 0 "/></g></g></g><g fill="#000000" fill-opacity="1"><g transform="translate(128.880932, 121.760123)"><g><path d="M 66.171875 -26.515625 L 23.65625 -26.515625 C 23.65625 -22.398438 24.988281 -19.351562 27.65625 -17.375 C 30.320312 -15.394531 33.21875 -14.40625 36.34375 -14.40625 C 39.625 -14.40625 42.210938 -14.84375 44.109375 -15.71875 C 46.015625 -16.59375 48.191406 -18.328125 50.640625 -20.921875 L 65.265625 -13.59375 C 59.171875 -3.382812 49.035156 1.71875 34.859375 1.71875 C 26.023438 1.71875 18.441406 -1.304688 12.109375 -7.359375 C 5.785156 -13.421875 2.625 -20.71875 2.625 -29.25 C 2.625 -37.789062 5.785156 -45.109375 12.109375 -51.203125 C 18.441406 -57.296875 26.023438 -60.34375 34.859375 -60.34375 C 44.160156 -60.34375 51.722656 -57.65625 57.546875 -52.28125 C 63.378906 -46.914062 66.296875 -39.242188 66.296875 -29.265625 C 66.296875 -27.890625 66.253906 -26.972656 66.171875 -26.515625 Z M 24.234375 -37.71875 L 46.515625 -37.71875 C 46.054688 -40.769531 44.851562 -43.113281 42.90625 -44.75 C 40.96875 -46.382812 38.476562 -47.203125 35.4375 -47.203125 C 32.082031 -47.203125 29.410156 -46.328125 27.421875 -44.578125 C 25.441406 -42.828125 24.378906 -40.539062 24.234375 -37.71875 Z M 24.234375 -37.71875 "/></g></g></g><g fill="#000000" fill-opacity="1"><g transform="translate(188.075556, 121.760123)"><g><path d="M 10.859375 -7.25 C 5.367188 -13.238281 2.625 -20.578125 2.625 -29.265625 C 2.625 -37.953125 5.367188 -45.300781 10.859375 -51.3125 C 16.347656 -57.332031 23.320312 -60.34375 31.78125 -60.34375 C 39.550781 -60.34375 45.945312 -57.90625 50.96875 -53.03125 L 50.96875 -58.640625 L 71.203125 -58.640625 L 71.203125 0 L 51.203125 0 L 51.203125 -6.625 L 50.96875 -6.625 C 45.945312 -1.0625 39.550781 1.71875 31.78125 1.71875 C 23.320312 1.71875 16.347656 -1.269531 10.859375 -7.25 Z M 28.046875 -39.203125 C 25.421875 -36.609375 24.109375 -33.289062 24.109375 -29.25 C 24.109375 -25.21875 25.363281 -21.925781 27.875 -19.375 C 30.394531 -16.820312 33.710938 -15.546875 37.828125 -15.546875 C 41.796875 -15.546875 45.054688 -16.835938 47.609375 -19.421875 C 50.160156 -22.015625 51.4375 -25.296875 51.4375 -29.265625 C 51.4375 -33.296875 50.117188 -36.609375 47.484375 -39.203125 C 44.859375 -41.796875 41.640625 -43.09375 37.828125 -43.09375 C 33.941406 -43.09375 30.679688 -41.796875 28.046875 -39.203125 Z M 28.046875 -39.203125 "/></g></g></g><g fill="#000000" fill-opacity="1"><g transform="translate(256.412612, 121.760123)"><g><path d="M 6.859375 0 L 6.859375 -98.296875 L 27.09375 -98.296875 L 27.09375 0 Z M 6.859375 0 "/></g></g></g><g fill="#000000" fill-opacity="1"><g transform="translate(280.637422, 121.760123)"><g/></g></g><g fill="#db4a2b" fill-opacity="1"><g transform="translate(302.126729, 121.760123)"><g><path d="M 6.859375 0 L 6.859375 -58.640625 L 27.09375 -58.640625 L 27.09375 -50.171875 L 27.3125 -50.171875 C 27.46875 -50.484375 27.71875 -50.863281 28.0625 -51.3125 C 28.40625 -51.769531 29.144531 -52.570312 30.28125 -53.71875 C 31.425781 -54.863281 32.644531 -55.890625 33.9375 -56.796875 C 35.238281 -57.710938 36.914062 -58.53125 38.96875 -59.25 C 41.03125 -59.976562 43.128906 -60.34375 45.265625 -60.34375 C 47.472656 -60.34375 49.644531 -60.035156 51.78125 -59.421875 C 53.914062 -58.816406 55.476562 -58.210938 56.46875 -57.609375 L 58.0625 -56.6875 L 49.609375 -39.546875 C 47.085938 -41.679688 43.582031 -42.75 39.09375 -42.75 C 36.65625 -42.75 34.554688 -42.210938 32.796875 -41.140625 C 31.046875 -40.078125 29.804688 -38.78125 29.078125 -37.25 C 28.359375 -35.726562 27.847656 -34.4375 27.546875 -33.375 C 27.242188 -32.3125 27.09375 -31.472656 27.09375 -30.859375 L 27.09375 0 Z M 6.859375 0 "/></g></g></g><g fill="#000000" fill-opacity="1"><g transform="translate(349.339208, 121.760123)"><g><path d="M 10.859375 -7.25 C 5.367188 -13.238281 2.625 -20.578125 2.625 -29.265625 C 2.625 -37.953125 5.367188 -45.300781 10.859375 -51.3125 C 16.347656 -57.332031 23.320312 -60.34375 31.78125 -60.34375 C 39.550781 -60.34375 45.945312 -57.90625 50.96875 -53.03125 L 50.96875 -58.640625 L 71.203125 -58.640625 L 71.203125 0 L 51.203125 0 L 51.203125 -6.625 L 50.96875 -6.625 C 45.945312 -1.0625 39.550781 1.71875 31.78125 1.71875 C 23.320312 1.71875 16.347656 -1.269531 10.859375 -7.25 Z M 28.046875 -39.203125 C 25.421875 -36.609375 24.109375 -33.289062 24.109375 -29.25 C 24.109375 -25.21875 25.363281 -21.925781 27.875 -19.375 C 30.394531 -16.820312 33.710938 -15.546875 37.828125 -15.546875 C 41.796875 -15.546875 45.054688 -16.835938 47.609375 -19.421875 C 50.160156 -22.015625 51.4375 -25.296875 51.4375 -29.265625 C 51.4375 -33.296875 50.117188 -36.609375 47.484375 -39.203125 C 44.859375 -41.796875 41.640625 -43.09375 37.828125 -43.09375 C 33.941406 -43.09375 30.679688 -41.796875 28.046875 -39.203125 Z M 28.046875 -39.203125 "/></g></g></g><g fill="#000000" fill-opacity="1"><g transform="translate(417.676263, 121.760123)"><g><path d="M 10.28125 -58.640625 L 10.28125 -80.46875 L 30.515625 -80.46875 L 30.515625 -58.640625 L 42.859375 -58.640625 L 42.859375 -43.203125 L 30.515625 -43.203125 L 30.515625 -24.578125 C 30.515625 -19.160156 32.039062 -16.453125 35.09375 -16.453125 C 35.851562 -16.453125 36.648438 -16.601562 37.484375 -16.90625 C 38.328125 -17.21875 38.976562 -17.523438 39.4375 -17.828125 L 40.125 -18.28125 L 45.140625 -1.9375 C 40.796875 0.5 35.84375 1.71875 30.28125 1.71875 C 26.476562 1.71875 23.203125 1.050781 20.453125 -0.28125 C 17.710938 -1.613281 15.632812 -3.40625 14.21875 -5.65625 C 12.8125 -7.90625 11.800781 -10.265625 11.1875 -12.734375 C 10.582031 -15.210938 10.28125 -17.863281 10.28125 -20.6875 L 10.28125 -43.203125 L 1.828125 -43.203125 L 1.828125 -58.640625 Z M 10.28125 -58.640625 "/></g></g></g><g fill="#000000" fill-opacity="1"><g transform="translate(453.100566, 121.760123)"><g><path d="M 8.796875 -91.3125 C 11.160156 -93.675781 13.976562 -94.859375 17.25 -94.859375 C 20.53125 -94.859375 23.351562 -93.675781 25.71875 -91.3125 C 28.082031 -88.957031 29.265625 -86.140625 29.265625 -82.859375 C 29.265625 -79.585938 28.082031 -76.769531 25.71875 -74.40625 C 23.351562 -72.039062 20.53125 -70.859375 17.25 -70.859375 C 13.976562 -70.859375 11.160156 -72.039062 8.796875 -74.40625 C 6.429688 -76.769531 5.25 -79.585938 5.25 -82.859375 C 5.25 -86.140625 6.429688 -88.957031 8.796875 -91.3125 Z M 6.859375 -58.640625 L 6.859375 0 L 27.09375 0 L 27.09375 -58.640625 Z M 6.859375 -58.640625 "/></g></g></g><g fill="#000000" fill-opacity="1"><g transform="translate(477.896793, 121.760123)"><g><path d="M 6.859375 0 L 6.859375 -58.640625 L 27.09375 -58.640625 L 27.09375 -52.46875 L 27.3125 -52.46875 C 32.570312 -57.71875 38.175781 -60.34375 44.125 -60.34375 C 47.019531 -60.34375 49.894531 -59.960938 52.75 -59.203125 C 55.601562 -58.441406 58.34375 -57.257812 60.96875 -55.65625 C 63.601562 -54.0625 65.738281 -51.796875 67.375 -48.859375 C 69.007812 -45.929688 69.828125 -42.519531 69.828125 -38.625 L 69.828125 0 L 49.609375 0 L 49.609375 -33.140625 C 49.609375 -36.191406 48.632812 -38.859375 46.6875 -41.140625 C 44.75 -43.429688 42.21875 -44.578125 39.09375 -44.578125 C 36.039062 -44.578125 33.273438 -43.394531 30.796875 -41.03125 C 28.328125 -38.664062 27.09375 -36.035156 27.09375 -33.140625 L 27.09375 0 Z M 6.859375 0 "/></g></g></g><g fill="#000000" fill-opacity="1"><g transform="translate(543.719659, 121.760123)"><g><path d="M 4.234375 14.40625 L 20.796875 6.28125 C 23.847656 11.3125 29.144531 13.828125 36.6875 13.828125 C 40.195312 13.828125 43.453125 12.703125 46.453125 10.453125 C 49.460938 8.210938 50.96875 4.765625 50.96875 0.109375 L 50.96875 -4.234375 C 47.394531 -0.265625 41 1.71875 31.78125 1.71875 C 23.320312 1.71875 16.347656 -1.269531 10.859375 -7.25 C 5.367188 -13.238281 2.625 -20.578125 2.625 -29.265625 C 2.625 -37.953125 5.367188 -45.300781 10.859375 -51.3125 C 16.347656 -57.332031 23.320312 -60.34375 31.78125 -60.34375 C 39.320312 -60.34375 45.609375 -58.019531 50.640625 -53.375 L 50.96875 -53.375 L 50.96875 -58.640625 L 71.203125 -58.640625 L 71.203125 1.59375 C 71.203125 11.125 68.039062 18.476562 61.71875 23.65625 C 55.394531 28.84375 47.050781 31.4375 36.6875 31.4375 C 19.925781 31.4375 9.109375 25.757812 4.234375 14.40625 Z M 28.046875 -39.203125 C 25.421875 -36.609375 24.109375 -33.289062 24.109375 -29.25 C 24.109375 -25.21875 25.363281 -21.925781 27.875 -19.375 C 30.394531 -16.820312 33.710938 -15.546875 37.828125 -15.546875 C 41.796875 -15.546875 45.054688 -16.835938 47.609375 -19.421875 C 50.160156 -22.015625 51.4375 -25.296875 51.4375 -29.265625 C 51.4375 -33.296875 50.117188 -36.609375 47.484375 -39.203125 C 44.859375 -41.796875 41.640625 -43.09375 37.828125 -43.09375 C 33.941406 -43.09375 30.679688 -41.796875 28.046875 -39.203125 Z M 28.046875 -39.203125 "/></g></g></g><g fill="#000000" fill-opacity="1"><g transform="translate(612.056714, 121.760123)"><g><path d="M 32.34375 -60.34375 C 35.695312 -60.34375 39.007812 -59.960938 42.28125 -59.203125 C 45.5625 -58.441406 48.003906 -57.679688 49.609375 -56.921875 L 52 -55.78125 L 45.375 -42.515625 C 40.800781 -44.953125 36.457031 -46.171875 32.34375 -46.171875 C 30.0625 -46.171875 28.441406 -45.921875 27.484375 -45.421875 C 26.535156 -44.929688 26.0625 -44 26.0625 -42.625 C 26.0625 -42.320312 26.097656 -42.019531 26.171875 -41.71875 C 26.242188 -41.414062 26.394531 -41.128906 26.625 -40.859375 C 26.851562 -40.597656 27.0625 -40.367188 27.25 -40.171875 C 27.445312 -39.984375 27.773438 -39.773438 28.234375 -39.546875 C 28.691406 -39.316406 29.050781 -39.144531 29.3125 -39.03125 C 29.582031 -38.914062 30.019531 -38.742188 30.625 -38.515625 C 31.238281 -38.285156 31.695312 -38.113281 32 -38 C 32.300781 -37.882812 32.8125 -37.710938 33.53125 -37.484375 C 34.257812 -37.253906 34.816406 -37.101562 35.203125 -37.03125 C 37.566406 -36.34375 39.625 -35.578125 41.375 -34.734375 C 43.125 -33.898438 44.96875 -32.757812 46.90625 -31.3125 C 48.851562 -29.863281 50.359375 -28.035156 51.421875 -25.828125 C 52.492188 -23.617188 53.03125 -21.101562 53.03125 -18.28125 C 53.03125 -4.945312 43.773438 1.71875 25.265625 1.71875 C 21.066406 1.71875 17.082031 1.070312 13.3125 -0.21875 C 9.539062 -1.519531 6.816406 -2.816406 5.140625 -4.109375 L 2.625 -6.171875 L 10.859375 -20 C 11.460938 -19.46875 12.257812 -18.835938 13.25 -18.109375 C 14.25 -17.390625 16.039062 -16.398438 18.625 -15.140625 C 21.21875 -13.890625 23.46875 -13.265625 25.375 -13.265625 C 29.5625 -13.265625 31.65625 -14.671875 31.65625 -17.484375 C 31.65625 -18.785156 31.117188 -19.796875 30.046875 -20.515625 C 28.984375 -21.242188 27.175781 -22.0625 24.625 -22.96875 C 22.070312 -23.882812 20.070312 -24.722656 18.625 -25.484375 C 14.96875 -27.390625 12.070312 -29.539062 9.9375 -31.9375 C 7.8125 -34.34375 6.75 -37.523438 6.75 -41.484375 C 6.75 -47.429688 9.050781 -52.0625 13.65625 -55.375 C 18.269531 -58.6875 24.5 -60.34375 32.34375 -60.34375 Z M 32.34375 -60.34375 "/></g></g></g><path stroke-linecap="butt" transform="matrix(1.600423, 0, 0, 1.600423, 39.009047, 157.848629)" fill="none" stroke-linejoin="miter" d="M -0.000771065 5.000512 L 84.432473 5.000512 " stroke="#292929" stroke-width="10" stroke-opacity="1" stroke-miterlimit="4"/><path stroke-linecap="butt" transform="matrix(0, 1.600423, -1.600423, 0, 55.005069, 37.083559)" fill="none" stroke-linejoin="miter" d="M -0.000954659 4.999405 L 82.462596 4.999405 " stroke="#292929" stroke-width="10" stroke-opacity="1" stroke-miterlimit="4"/><path stroke-linecap="butt" transform="matrix(-1.600423, 0, 0, -1.600423, 717.407354, 29.143162)" fill="none" stroke-linejoin="miter" d="M 0.000689873 5.000264 L 84.433934 5.000264 " stroke="#292929" stroke-width="10" stroke-opacity="1" stroke-miterlimit="4"/><path stroke-linecap="butt" transform="matrix(0, -1.600423, 1.600423, 0, 701.411315, 149.90832)" fill="none" stroke-linejoin="miter" d="M -0.00114762 5.000395 L 82.462403 5.000395 " stroke="#292929" stroke-width="10" stroke-opacity="1" stroke-miterlimit="4"/></svg>